<?xml version="1.0" encoding="UTF-8"?>
<svg version="1.1" xmlns="http://www.w3.org/2000/svg" width="225" height="225">
<path d="M0 0 C74.25 0 148.5 0 225 0 C225 74.25 225 148.5 225 225 C150.75 225 76.5 225 0 225 C0 150.75 0 76.5 0 0 Z " fill="#FEFEFE" transform="translate(0,0)"/>
<path d="M0 0 C1.01304199 0.00491455 2.02608398 0.0098291 3.06982422 0.01489258 C11.01595729 0.13855546 18.18397947 0.95129126 25.8125 3.3125 C26.88242188 3.64121094 27.95234375 3.96992187 29.0546875 4.30859375 C49.73456363 11.47464195 65.37621633 26.33138093 75.8125 45.3125 C77.80288145 49.56423067 79.38279937 53.84398469 80.8125 58.3125 C81.13089844 59.20582031 81.44929687 60.09914062 81.77734375 61.01953125 C87.82654519 80.50520778 83.8642153 103.43524198 74.8125 121.3125 C63.56971206 140.66412135 45.59220564 155.47944238 23.8125 161.3125 C-1.45597901 166.99714576 -24.4400022 162.87306296 -46.28515625 149.40234375 C-63.22799413 137.79733384 -75.7635133 118.70466174 -79.6875 98.52734375 C-80.42815152 93.24759378 -80.47390292 87.94880436 -80.5 82.625 C-80.50555908 81.6752832 -80.51111816 80.72556641 -80.5168457 79.74707031 C-80.30034752 58.36371135 -71.54211766 38.9952872 -56.6875 23.74609375 C-41.08403033 8.89104632 -21.61930864 -0.12433175 0 0 Z " fill="#FCFDFD" transform="translate(112.1875,29.6875)"/>
<path d="M0 0 C1.01304199 0.00491455 2.02608398 0.0098291 3.06982422 0.01489258 C11.01595729 0.13855546 18.18397947 0.95129126 25.8125 3.3125 C26.88242188 3.64121094 27.95234375 3.96992187 29.0546875 4.30859375 C49.73456363 11.47464195 65.37621633 26.33138093 75.8125 45.3125 C77.80288145 49.56423067 79.38279937 53.84398469 80.8125 58.3125 C81.13089844 59.20582031 81.44929687 60.09914062 81.77734375 61.01953125 C87.82654519 80.50520778 83.8642153 103.43524198 74.8125 121.3125 C63.56971206 140.66412135 45.59220564 155.47944238 23.8125 161.3125 C-1.45597901 166.99714576 -24.4400022 162.87306296 -46.28515625 149.40234375 C-63.22799413 137.79733384 -75.7635133 118.70466174 -79.6875 98.52734375 C-80.42815152 93.24759378 -80.47390292 87.94880436 -80.5 82.625 C-80.50555908 81.6752832 -80.51111816 80.72556641 -80.5168457 79.74707031 C-80.30034752 58.36371135 -71.54211766 38.9952872 -56.6875 23.74609375 C-41.08403033 8.89104632 -21.61930864 -0.12433175 0 0 Z M-49.4296875 35.71875 C-54.23645847 41.45059764 -58.0478278 47.52903921 -61.1875 54.3125 C-61.67605469 55.35277344 -62.16460937 56.39304688 -62.66796875 57.46484375 C-68.43647658 71.82955933 -68.74062474 90.39841608 -63.6484375 105.04296875 C-55.33929868 123.63855482 -44.41110531 137.14479694 -25.1875 145.3125 C-7.21524716 152.16316735 13.41720862 151.3019078 31.0703125 143.95703125 C37.65949391 140.87712565 43.34855226 137.0987488 48.8125 132.3125 C49.41578125 131.79171875 50.0190625 131.2709375 50.640625 130.734375 C62.90807458 119.35106593 69.89260142 103.2759938 71.06640625 86.734375 C71.67710297 66.64048281 65.57056747 49.27922013 51.8125 34.3125 C39.18019733 21.51734996 23.30276936 13.32586132 5.16040039 13.0703125 C-16.64721895 13.01177347 -34.26097701 19.44013387 -49.4296875 35.71875 Z " fill="#0F89F9" transform="translate(112.1875,29.6875)"/>
<path d="M0 0 C8.07480772 6.99427287 13.21949635 15.25431644 14.5078125 26.0078125 C14.68198081 30.73357944 14.67764829 33.84060129 12.3125 38 C8.73380439 40.96520493 5.75222181 40.94165355 1.26416016 40.95776367 C0.05925934 40.96414352 -1.14564148 40.97052338 -2.38705444 40.97709656 C-3.69018585 40.97820938 -4.99331726 40.9793222 -6.3359375 40.98046875 C-7.68730708 40.98368281 -9.03867631 40.987047 -10.39004517 40.99055481 C-13.22292894 40.99654182 -16.05578222 40.99839517 -18.88867188 40.99780273 C-22.51237633 40.99770119 -26.13588449 41.01134687 -29.75954247 41.02857494 C-32.55114636 41.03971376 -35.3427031 41.04172136 -38.13432693 41.04119301 C-40.11791688 41.04294184 -42.10149211 41.05377153 -44.08505249 41.06474304 C-45.29625763 41.06166641 -46.50746277 41.05858978 -47.75537109 41.05541992 C-48.81887787 41.05684494 -49.88238464 41.05826996 -50.9781189 41.05973816 C-55.11002673 40.70709501 -57.92312023 39.89567353 -60.6875 36.75 C-63.64274771 29.43965041 -61.75794357 21.88980132 -58.875 14.8125 C-55.63091851 8.15721767 -51.91343435 3.11953493 -45.875 -1.1875 C-44.6684375 -2.05375 -44.6684375 -2.05375 -43.4375 -2.9375 C-30.90429087 -9.05126055 -11.33782805 -8.26284307 0 0 Z " fill="#1D7BFD" transform="translate(136.875,115.1875)"/>
<path d="M0 0 C1.03108887 0.00942627 2.06217773 0.01885254 3.12451172 0.02856445 C11.12636146 0.18604166 18.38232775 0.99780383 26.0625 3.375 C27.13242188 3.70371094 28.20234375 4.03242187 29.3046875 4.37109375 C49.98456363 11.53714195 65.62621633 26.39388093 76.0625 45.375 C78.05288145 49.62673067 79.63279937 53.90648469 81.0625 58.375 C81.38089844 59.26832031 81.69929688 60.16164062 82.02734375 61.08203125 C88.06004717 80.5145644 84.16711504 103.55997078 75.0625 121.375 C70.73646921 128.90144175 65.46815086 135.51451092 59.0625 141.375 C56.70296906 139.01546906 56.57108587 137.59604383 56.0625 134.375 C55.0725 134.045 54.0825 133.715 53.0625 133.375 C52.7325 132.715 52.4025 132.055 52.0625 131.375 C50.0825 132.365 50.0825 132.365 48.0625 133.375 C48.866875 132.488125 49.67125 131.60125 50.5 130.6875 C64.09016263 114.68202411 71.42807955 97.81261019 70.25341797 76.53222656 C68.66955379 58.63577661 60.46897377 42.85435137 47.25 30.6875 C34.05784769 19.80077237 19.84602426 14.49236508 2.85742188 13.85742188 C-0.94193182 13.66834606 -3.62980443 13.21898647 -6.9375 11.375 C-9.29314596 10.92688863 -9.29314596 10.92688863 -11.6875 10.75 C-12.48671875 10.67523438 -13.2859375 10.60046875 -14.109375 10.5234375 C-14.71265625 10.47445312 -15.3159375 10.42546875 -15.9375 10.375 C-16.25 7.0625 -16.25 7.0625 -15.9375 3.375 C-11.45943022 -0.78865212 -5.73750544 -0.07995718 0 0 Z " fill="#B340BD" transform="translate(111.9375,29.625)"/>
<path d="M0 0 C5.18087304 3.70616761 8.67418056 7.69441667 10.7109375 13.8046875 C11.76206371 21.14755485 9.73076022 26.67556219 5.7109375 32.8046875 C1.29594845 37.33288139 -3.49911962 38.87401061 -9.7265625 39.1171875 C-15.13107377 38.94518463 -19.24308253 37.76882827 -23.2421875 33.9296875 C-28.77700686 27.80988723 -29.76886749 23.42313401 -29.6953125 15.17578125 C-29.0636243 9.93398401 -26.96203932 6.52588721 -23.2890625 2.8046875 C-16.51132714 -2.42801571 -7.79851121 -4.07226012 0 0 Z " fill="#356BF6" transform="translate(122.2890625,68.1953125)"/>
<path d="M0 0 C3.48670834 1.1094072 6.77484237 2.26337666 10 4 C10 5.32 10 6.64 10 8 C10.94875 7.814375 11.8975 7.62875 12.875 7.4375 C16 7 16 7 18 8 C25.32275835 24.76172667 21.57233445 47.16073603 15.375 63.5625 C11.07856871 74.19283127 4.45714868 83.26260865 -4 91 C-6.35953094 88.64046906 -6.49141413 87.22104383 -7 84 C-7.99 83.67 -8.98 83.34 -10 83 C-10.33 82.34 -10.66 81.68 -11 81 C-12.98 81.99 -12.98 81.99 -15 83 C-14.195625 82.113125 -13.39125 81.22625 -12.5625 80.3125 C1.01531176 64.32157004 8.36438123 47.44797862 7.20849609 26.18359375 C6.33991471 17.08688191 3.76279109 8.29107836 0 0 Z " fill="#A044CB" transform="translate(175,80)"/>
<path d="M0 0 C-0.33 2.64 -0.66 5.28 -1 8 C-0.14728516 7.98259766 -0.14728516 7.98259766 0.72265625 7.96484375 C5.60670484 7.90776806 10.18503965 8.18043228 15 9 C11.94887735 11.03408177 9.6514743 11.54184211 6.09765625 12.19042969 C-11.35647402 15.42133151 -26.30808166 24.08302007 -37.1796875 38.34375 C-41.19636129 44.20499072 -44.45298535 50.37062074 -47 57 C-47.33 57 -47.66 57 -48 57 C-48.66 54.03 -49.32 51.06 -50 48 C-53.28696233 47.20046862 -54.71023192 46.90341064 -58 48 C-58.73323796 50.01508358 -58.73323796 50.01508358 -59 52 C-60 49 -60 49 -58.62890625 45.77734375 C-57.95440074 44.48980451 -57.26459092 43.21020708 -56.5625 41.9375 C-56.19487549 41.26501221 -55.82725098 40.59252441 -55.44848633 39.8996582 C-45.69263271 22.497381 -22.06834201 -1.67184409 0 0 Z " fill="#406CF7" transform="translate(97,32)"/>
<path d="M0 0 C3.46049455 2.99909528 5.06056062 5.49069095 6 10 C3.46635774 17.51043955 -6.52738455 21.92064898 -13.125 25.3125 C-26.32998827 31.5900009 -26.32998827 31.5900009 -34 31 C-34 30.34 -34 29.68 -34 29 C-34.66 29 -35.32 29 -36 29 C-36 28.34 -36 27.68 -36 27 C-35.34 27 -34.68 27 -34 27 C-34 26.34 -34 25.68 -34 25 C-34.66 25 -35.32 25 -36 25 C-36 24.34 -36 23.68 -36 23 C-37.155 23.185625 -38.31 23.37125 -39.5 23.5625 C-43.86389648 24.1235724 -47.66733065 23.69632186 -52 23 C-52 22.34 -52 21.68 -52 21 C-54.64 20.67 -57.28 20.34 -60 20 C-60 19.67 -60 19.34 -60 19 C-59.4423999 18.9906543 -58.8847998 18.98130859 -58.31030273 18.97167969 C-38.28219817 18.55198443 -21.37410878 15.36412296 -5 3 C-3.34588332 1.97937481 -1.68441129 0.96981256 0 0 Z " fill="#2C75F9" transform="translate(164,160)"/>
<path d="M0 0 C1.65 0.99 3.3 1.98 5 3 C5.33 2.34 5.66 1.68 6 1 C7.47584827 6.71891205 7.77290279 12.54120888 5.99780273 18.18823242 C4.96590028 22.13026644 4.77095192 25.39970665 4.8046875 29.46484375 C4.8075174 30.14301651 4.81034729 30.82118927 4.81326294 31.51991272 C4.82434584 33.65929766 4.8494264 35.7982443 4.875 37.9375 C4.88504524 39.39908244 4.89416837 40.86067153 4.90234375 42.32226562 C4.92424575 45.88164979 4.95869134 49.44078203 5 53 C3.515 53.495 3.515 53.495 2 54 C1.67 53.34 1.34 52.68 1 52 C0.34 52.66 -0.32 53.32 -1 54 C-1 53.01 -1 52.02 -1 51 C-1.66 51 -2.32 51 -3 51 C-3 48.36 -3 45.72 -3 43 C-3.99 43 -4.98 43 -6 43 C-6.33 44.32 -6.66 45.64 -7 47 C-10.94591335 43.05408665 -9.79630633 29.43821762 -10 24 C-9.77619059 20.11649221 -9.21374265 16.68869275 -8 13 C-7.77957031 12.319375 -7.55914062 11.63875 -7.33203125 10.9375 C-5.90175977 7.14451485 -3.98602044 4.6874184 -1 2 C-0.67 1.34 -0.34 0.68 0 0 Z " fill="#197EFB" transform="translate(42,77)"/>
<path d="M0 0 C0.66 0 1.32 0 2 0 C2 4.95 2 9.9 2 15 C5.63619656 16.08084521 5.63619656 16.08084521 8 16 C8 16.66 8 17.32 8 18 C8.66 18.33 9.32 18.66 10 19 C5.50280766 31.54242086 -1.14320635 41.9820824 -11 51 C-13.35953094 48.64046906 -13.49141413 47.22104383 -14 44 C-14.99 43.67 -15.98 43.34 -17 43 C-17.33 42.34 -17.66 41.68 -18 41 C-19.32 41.66 -20.64 42.32 -22 43 C-21.195625 42.113125 -20.39125 41.22625 -19.5625 40.3125 C-9.25003442 28.16725025 -2.41104237 15.94166823 0 0 Z " fill="#7A54DF" transform="translate(182,120)"/>
<path d="M0 0 C13.49413283 7.06835529 23.04958196 23.07685952 29.1640625 36.5078125 C29.72412274 38.77653108 29.35576512 40.18270465 28.625 42.375 C26.645 42.375 24.665 42.375 22.625 42.375 C22.625 41.055 22.625 39.735 22.625 38.375 C21.14 38.87 21.14 38.87 19.625 39.375 C18.965 38.385 18.305 37.395 17.625 36.375 C15.975 35.715 14.325 35.055 12.625 34.375 C12.625 30.745 12.625 27.115 12.625 23.375 C11.305 23.705 9.985 24.035 8.625 24.375 C6.0595406 21.8095406 6.08453913 19.89813332 5.625 16.375 C4.635 17.035 3.645 17.695 2.625 18.375 C2.625 17.055 2.625 15.735 2.625 14.375 C1.67625 14.00375 0.7275 13.6325 -0.25 13.25 C-3.375 11.375 -3.375 11.375 -4.75 8.1875 C-4.95625 7.259375 -5.1625 6.33125 -5.375 5.375 C-7.025 5.045 -8.675 4.715 -10.375 4.375 C-10 2.4375 -10 2.4375 -9.375 0.375 C-6.16947672 -1.22776164 -3.41552131 -0.8988214 0 0 Z " fill="#BD3AB9" transform="translate(162.375,45.625)"/>
<path d="M0 0 C-0.33 2.64 -0.66 5.28 -1 8 C-0.14728516 7.98259766 -0.14728516 7.98259766 0.72265625 7.96484375 C5.60670484 7.90776806 10.18503965 8.18043228 15 9 C11.31154444 11.45897037 7.70662843 11.98181393 3.4375 12.8125 C-2.91837666 14.11968775 -8.31499781 15.75011122 -14.0078125 18.9609375 C-16.60520018 20.31565343 -19.09517477 20.77067169 -22 21 C-22 20.34 -22 19.68 -22 19 C-22.66 18.67 -23.32 18.34 -24 18 C-24.625 14.9375 -24.625 14.9375 -25 12 C-25.66 12 -26.32 12 -27 12 C-27.33 12.66 -27.66 13.32 -28 14 C-29.9375 15.1875 -29.9375 15.1875 -32 16 C-32.66 15.67 -33.32 15.34 -34 15 C-11.17813571 -0.82409696 -11.17813571 -0.82409696 0 0 Z " fill="#7A53DF" transform="translate(97,32)"/>
<path d="M0 0 C1.53624023 0.00773437 1.53624023 0.00773437 3.10351562 0.015625 C8.020003 0.06654008 12.73314313 0.22282976 17.5625 1.25 C16.9025 1.58 16.2425 1.91 15.5625 2.25 C15.748125 2.8275 15.93375 3.405 16.125 4 C16.5625 6.25 16.5625 6.25 15.5625 10.25 C18.2025 10.91 20.8425 11.57 23.5625 12.25 C23.5625 12.91 23.5625 13.57 23.5625 14.25 C19.14531944 14.14015099 14.7289929 14.00951247 10.3125 13.875 C9.05824219 13.8440625 7.80398437 13.813125 6.51171875 13.78125 C5.30644531 13.74257813 4.10117188 13.70390625 2.859375 13.6640625 C1.74916992 13.6326416 0.63896484 13.6012207 -0.50488281 13.56884766 C-3.36077345 13.25834206 -4.97881998 12.65183092 -7.4375 11.25 C-9.79314596 10.80188863 -9.79314596 10.80188863 -12.1875 10.625 C-12.98671875 10.55023438 -13.7859375 10.47546875 -14.609375 10.3984375 C-15.21265625 10.34945312 -15.8159375 10.30046875 -16.4375 10.25 C-16.75 6.9375 -16.75 6.9375 -16.4375 3.25 C-11.90680802 -1.05513805 -5.83004301 -0.11696638 0 0 Z " fill="#9C47CD" transform="translate(112.4375,29.75)"/>
<path d="M0 0 C1.65 0.99 3.3 1.98 5 3 C5.33 2.34 5.66 1.68 6 1 C7.46658729 6.68302576 7.78594726 12.50804816 6.015625 18.12109375 C4.30556579 23.75905194 4.6059253 29.68288306 4.52148438 35.52539062 C4.49505859 36.42837891 4.46863281 37.33136719 4.44140625 38.26171875 C4.42795166 39.07600342 4.41449707 39.89028809 4.40063477 40.72924805 C4 43 4 43 1 47 C0.67 39.08 0.34 31.16 0 23 C-0.66 23 -1.32 23 -2 23 C-2.33 21.02 -2.66 19.04 -3 17 C-5.29575603 19.29575603 -5.32339599 20.00842525 -5.625 23.125 C-5.74875 24.40375 -5.8725 25.6825 -6 27 C-6.33 25.68 -6.66 24.36 -7 23 C-7.66 23 -8.32 23 -9 23 C-9.55442677 16.62409211 -7.919703 11.67115193 -5 6 C-2.8125 3.5 -2.8125 3.5 -1 2 C-0.67 1.34 -0.34 0.68 0 0 Z " fill="#2E77F9" transform="translate(42,77)"/>
<path d="M0 0 C3.46049455 2.99909528 5.06056062 5.49069095 6 10 C4.69454999 14.06507218 1.89048075 15.84097421 -1.5 18.25 C-2.4796875 18.95640625 -3.459375 19.6628125 -4.46875 20.390625 C-7 22 -7 22 -9 22 C-9 21.34 -9 20.68 -9 20 C-8.01 20 -7.02 20 -6 20 C-6 19.01 -6 18.02 -6 17 C-7.32 17 -8.64 17 -10 17 C-10 17.66 -10 18.32 -10 19 C-10.66 19 -11.32 19 -12 19 C-12.0825 18.4225 -12.165 17.845 -12.25 17.25 C-13.20411453 14.38765641 -14.83993121 13.05638549 -17 11 C-15.10515026 9.72770057 -13.20907718 8.45722296 -11.3125 7.1875 C-10.25675781 6.47980469 -9.20101562 5.77210938 -8.11328125 5.04296875 C-5.44396458 3.29133435 -2.75151858 1.61824006 0 0 Z " fill="#3C6DF8" transform="translate(164,160)"/>
<path d="M0 0 C7.48971804 2.1064832 13.2287194 8.318468 16.96875 14.9140625 C20.67804721 22.41695912 22.12285493 29.60299793 21 38 C19.1875 41.25 19.1875 41.25 17 43 C16.01 43 15.02 43 14 43 C14 42.34 14 41.68 14 41 C14.99 41 15.98 41 17 41 C16.69240822 39.02006459 16.3787932 37.04106401 16.0625 35.0625 C15.88847656 33.96035156 15.71445313 32.85820312 15.53515625 31.72265625 C15.28154864 29.09573071 15.28154864 29.09573071 14 28 C13.92755947 25.98035801 13.91622812 23.95832876 13.9375 21.9375 C13.94652344 20.83277344 13.95554688 19.72804687 13.96484375 18.58984375 C13.97644531 17.73519531 13.98804688 16.88054687 14 16 C11.69 16 9.38 16 7 16 C5.875 10.25 5.875 10.25 7 8 C3.41672247 6.99782936 3.41672247 6.99782936 0 8 C-0.66 7.67 -1.32 7.34 -2 7 C-1.42415568 4.61435923 -0.77772405 2.33317216 0 0 Z " fill="#3074F3" transform="translate(130,112)"/>
<path d="M0 0 C1 3 1 3 0 6 C1.32 6 2.64 6 4 6 C4.66 6 5.32 6 6 6 C7.60397886 11.91607087 7.60397886 11.91607087 6.05126953 14.70263672 C4.63100738 16.37992297 3.14493702 17.91246699 1.5625 19.4375 C1.03333984 19.97826172 0.50417969 20.51902344 -0.04101562 21.07617188 C-1.34304838 22.40166468 -2.66926182 23.70332872 -4 25 C-6.35953094 22.64046906 -6.49141413 21.22104383 -7 18 C-7.99 17.67 -8.98 17.34 -10 17 C-10.33 16.34 -10.66 15.68 -11 15 C-12.98 15.99 -12.98 15.99 -15 17 C-14.60167969 16.54109375 -14.20335937 16.0821875 -13.79296875 15.609375 C-12.99826172 14.68898437 -12.99826172 14.68898437 -12.1875 13.75 C-11.63835937 13.11449219 -11.08921875 12.47898438 -10.5234375 11.82421875 C-8.90875413 9.94643248 -8.90875413 9.94643248 -7.3125 7.5625 C-6.6628125 6.7890625 -6.6628125 6.7890625 -6 6 C-5.01 6 -4.02 6 -3 6 C-2.690625 5.195625 -2.38125 4.39125 -2.0625 3.5625 C-1 1 -1 1 0 0 Z " fill="#6A58EB" transform="translate(175,146)"/>
<path d="M0 0 C0.99 2.97 1.98 5.94 3 9 C4.32 8.67 5.64 8.34 7 8 C5.35446591 9.69393215 3.69580608 11.35732623 2 13 C1.49597656 13.48855469 0.99195312 13.97710937 0.47265625 14.48046875 C-1.0625 15.875 -1.0625 15.875 -4 18 C-6.375 17.8125 -6.375 17.8125 -8 17 C-8.33 15.35 -8.66 13.7 -9 12 C-11.97 12 -14.94 12 -18 12 C-14.72390954 7.49537562 -11.96097944 5.11887804 -6.8671875 2.859375 C-0.65454545 0 -0.65454545 0 0 0 Z " fill="#635CEE" transform="translate(72,44)"/>
<path d="M0 0 C0.66 0 1.32 0 2 0 C2 4.95 2 9.9 2 15 C5.63619656 16.08084521 5.63619656 16.08084521 8 16 C8 16.66 8 17.32 8 18 C8.66 18.33 9.32 18.66 10 19 C8.68 22.3 7.36 25.6 6 29 C4 28 4 28 3 25 C2.34 24.67 1.68 24.34 1 24 C1 23.01 1 22.02 1 21 C0.34 21 -0.32 21 -1 21 C-1.33 20.34 -1.66 19.68 -2 19 C-2.99 19.33 -3.98 19.66 -5 20 C-4.80664062 19.39414063 -4.61328125 18.78828125 -4.4140625 18.1640625 C-2.54867496 12.16157783 -1.11840293 6.1841103 0 0 Z " fill="#854FDA" transform="translate(182,120)"/>
<path d="M0 0 C-0.33 2.64 -0.66 5.28 -1 8 C-0.14728516 7.98259766 -0.14728516 7.98259766 0.72265625 7.96484375 C5.60670484 7.90776806 10.18503965 8.18043228 15 9 C10.17946425 12.2136905 4.7224007 12.69086671 -1 13 C-3.82068771 12.36454523 -5.50079904 11.51114477 -8 10 C-7.34 8.68 -6.68 7.36 -6 6 C-8.64 5.67 -11.28 5.34 -14 5 C-10.39689122 0.59620038 -5.480803 -0.32240018 0 0 Z " fill="#8950D7" transform="translate(97,32)"/>
<path d="M0 0 C1.6875 0.125 1.6875 0.125 4 1 C5.16197199 2.44461383 6.32512521 3.89367967 7.36328125 5.4296875 C11.93630449 9.81717041 18.15363396 10.56994939 24.1875 11.1875 C24.88552734 11.26935547 25.58355469 11.35121094 26.30273438 11.43554688 C29.56562695 11.80498952 32.71147121 12 36 12 C36 12.66 36 13.32 36 14 C36.66 14 37.32 14 38 14 C38 14.66 38 15.32 38 16 C37.42459473 15.8570752 36.84918945 15.71415039 36.25634766 15.56689453 C29.22866063 13.97443428 22.55947248 13.76151502 15.375 13.875 C14.27542969 13.88402344 13.17585938 13.89304687 12.04296875 13.90234375 C9.36174242 13.92565876 6.68099393 13.9583796 4 14 C4.185625 13.401875 4.37125 12.80375 4.5625 12.1875 C5.22093687 9.83591238 5.22093687 9.83591238 4 7 C4 6.34 4 5.68 4 5 C3.01 5 2.02 5 1 5 C0.67 3.35 0.34 1.7 0 0 Z " fill="#F6F9F7" transform="translate(92,96)"/>
<path d="M0 0 C-0.33 1.32 -0.66 2.64 -1 4 C-0.34 4 0.32 4 1 4 C0.67 5.65 0.34 7.3 0 9 C1.65 8.67 3.3 8.34 5 8 C4.67 8.99 4.34 9.98 4 11 C2.15234375 11.73046875 2.15234375 11.73046875 -0.0625 12.1875 C-0.79597656 12.34605469 -1.52945313 12.50460938 -2.28515625 12.66796875 C-2.85105469 12.77753906 -3.41695312 12.88710938 -4 13 C-4 12.34 -4 11.68 -4 11 C-4.66 10.67 -5.32 10.34 -6 10 C-6.625 6.9375 -6.625 6.9375 -7 4 C-7.66 4 -8.32 4 -9 4 C-9.33 4.66 -9.66 5.32 -10 6 C-11.9375 7.1875 -11.9375 7.1875 -14 8 C-14.66 7.67 -15.32 7.34 -16 7 C-14.47163069 5.81596686 -12.92661017 4.65340933 -11.375 3.5 C-10.51648438 2.8503125 -9.65796875 2.200625 -8.7734375 1.53125 C-5.58097937 -0.2313466 -3.59069802 -0.29483737 0 0 Z " fill="#7059E8" transform="translate(79,40)"/>
<path d="M0 0 C0.33 0.99 0.66 1.98 1 3 C1.66 3.66 2.32 4.32 3 5 C3 5.99 3 6.98 3 8 C0.29120665 9.35439668 -2.00933268 9.06501451 -5 9 C-5 8.34 -5 7.68 -5 7 C-5.66 7 -6.32 7 -7 7 C-7 6.34 -7 5.68 -7 5 C-6.34 5 -5.68 5 -5 5 C-5 4.34 -5 3.68 -5 3 C-5.66 3 -6.32 3 -7 3 C-7 2.34 -7 1.68 -7 1 C-8.7325 1.2784375 -8.7325 1.2784375 -10.5 1.5625 C-14.86389648 2.1235724 -18.66733065 1.69632186 -23 1 C-23 0.34 -23 -0.32 -23 -1 C-15.40560858 -2.3144139 -7.38117268 -2.46039089 0 0 Z " fill="#217BF9" transform="translate(135,182)"/>
<path d="M0 0 C1.8871875 0.0309375 1.8871875 0.0309375 3.8125 0.0625 C4.20172918 1.34995036 4.57348036 2.64269597 4.9375 3.9375 C5.14632812 4.65679687 5.35515625 5.37609375 5.5703125 6.1171875 C5.65023437 6.75914063 5.73015625 7.40109375 5.8125 8.0625 C5.1525 8.7225 4.4925 9.3825 3.8125 10.0625 C3.1525 9.7325 2.4925 9.4025 1.8125 9.0625 C1.8125 9.7225 1.8125 10.3825 1.8125 11.0625 C0.8225 11.3925 -0.1675 11.7225 -1.1875 12.0625 C-1.8475 11.4025 -2.5075 10.7425 -3.1875 10.0625 C-3.703125 9.5675 -4.21875 9.0725 -4.75 8.5625 C-6.1875 7.0625 -6.1875 7.0625 -7.1875 5.0625 C-8.1775 4.7325 -9.1675 4.4025 -10.1875 4.0625 C-7.08842497 0.66827497 -4.52992189 -0.07426101 0 0 Z " fill="#4C66F7" transform="translate(60.1875,54.9375)"/>
<path d="M0 0 C3.49529294 1.11213866 6.74469192 2.31573191 10 4 C9.85923685 5.9587043 9.7122324 7.91696093 9.5625 9.875 C9.48128906 10.96554688 9.40007812 12.05609375 9.31640625 13.1796875 C9 16 9 16 8 18 C7.34 18 6.68 18 6 18 C5.60167969 16.67935547 5.60167969 16.67935547 5.1953125 15.33203125 C4.84210938 14.17058594 4.48890625 13.00914063 4.125 11.8125 C3.60292969 10.08966797 3.60292969 10.08966797 3.0703125 8.33203125 C2.15781129 5.49128843 1.15019636 2.75114535 0 0 Z " fill="#AE44C0" transform="translate(175,80)"/>
<path d="M0 0 C5.05946995 7.58920492 2.68411306 18.32755136 2 27 C1.34 27 0.68 27 0 27 C-0.19665429 23.06290089 -0.38075477 19.12531328 -0.5625 15.1875 C-0.61857422 14.06794922 -0.67464844 12.94839844 -0.73242188 11.79492188 C-0.80493164 10.18520508 -0.80493164 10.18520508 -0.87890625 8.54296875 C-0.9260376 7.55321045 -0.97316895 6.56345215 -1.02172852 5.54370117 C-1 3 -1 3 0 0 Z " fill="#AE43C4" transform="translate(193,93)"/>
<path d="M0 0 C7.26 0.33 14.52 0.66 22 1 C22 1.33 22 1.66 22 2 C20.96939453 2.19916016 20.96939453 2.19916016 19.91796875 2.40234375 C18.56638672 2.66724609 18.56638672 2.66724609 17.1875 2.9375 C16.29417969 3.11152344 15.40085937 3.28554687 14.48046875 3.46484375 C11.88602829 3.97741153 11.88602829 3.97741153 9 5 C10.65 5.33 12.3 5.66 14 6 C14 6.33 14 6.66 14 7 C11.36 7 8.72 7 6 7 C6 6.01 6 5.02 6 4 C3.69 3.67 1.38 3.34 -1 3 C-0.67 2.01 -0.34 1.02 0 0 Z " fill="#E2F2FC" transform="translate(98,192)"/>
<path d="M0 0 C0.53625 0.0721875 1.0725 0.144375 1.625 0.21875 C7.6595109 0.93336313 13.58242205 1.03887094 19.65625 0.98046875 C27.12916836 0.93816921 34.5511293 1.44529686 42 2 C42 2.33 42 2.66 42 3 C28.47 3 14.94 3 1 3 C0.67 2.01 0.34 1.02 0 0 Z " fill="#0281F9" transform="translate(78,152)"/>
<path d="M0 0 C0.99 0.33 1.98 0.66 3 1 C2.29875 1.680625 1.5975 2.36125 0.875 3.0625 C-2.27934337 6.20780513 -5.13934304 9.5888386 -8 13 C-9.51953125 11.76171875 -9.51953125 11.76171875 -11 10 C-11.10118893 7.21464152 -10.49854208 4.76464243 -10 2 C-9.01 3.485 -9.01 3.485 -8 5 C-6.35 4.67 -4.7 4.34 -3 4 C-3 3.34 -3 2.68 -3 2 C-2.01 1.34 -1.02 0.68 0 0 Z " fill="#F8F9F7" transform="translate(58,48)"/>
<path d="M0 0 C0 4.26861765 -1.65525557 6.48288335 -4 10 C-4.99 10 -5.98 10 -7 10 C-7 10.66 -7 11.32 -7 12 C-8.32 12.33 -9.64 12.66 -11 13 C-11.66 12.01 -12.32 11.02 -13 10 C-11.71802734 9.04287109 -11.71802734 9.04287109 -10.41015625 8.06640625 C-9.29423934 7.23181293 -8.17835564 6.39717522 -7.0625 5.5625 C-6.21655273 4.93118164 -6.21655273 4.93118164 -5.35351562 4.28710938 C-2.57122778 2.26901433 -2.57122778 2.26901433 0 0 Z " fill="#EBF3F9" transform="translate(170,171)"/>
<path d="M0 0 C0.99 0.33 1.98 0.66 3 1 C3.33 1.66 3.66 2.32 4 3 C-6.56 2.34 -17.12 1.68 -28 1 C-28 0.67 -28 0.34 -28 0 C-24.60426181 -0.16864319 -21.20839586 -0.33456465 -17.8125 -0.5 C-16.37293945 -0.57154297 -16.37293945 -0.57154297 -14.90429688 -0.64453125 C-13.50727539 -0.71220703 -13.50727539 -0.71220703 -12.08203125 -0.78125 C-11.22843018 -0.82314453 -10.3748291 -0.86503906 -9.49536133 -0.90820312 C-2.34265925 -1.17132963 -2.34265925 -1.17132963 0 0 Z " fill="#4A96EE" transform="translate(132,179)"/>
<path d="M0 0 C0.33 0.99 0.66 1.98 1 3 C1.66 3.33 2.32 3.66 3 4 C2.52433594 4.79664062 2.52433594 4.79664062 2.0390625 5.609375 C0.7629651 8.54535848 0.58292979 11.06174329 0.375 14.25 C0.30023438 15.32765625 0.22546875 16.4053125 0.1484375 17.515625 C0.09945312 18.33546875 0.05046875 19.1553125 0 20 C-0.33 18.68 -0.66 17.36 -1 16 C-1.66 16 -2.32 16 -3 16 C-3.37851209 10.06997733 -2.10575375 5.52760359 0 0 Z " fill="#307EF0" transform="translate(36,84)"/>
<path d="M0 0 C0.66 0 1.32 0 2 0 C2.13277344 0.73605469 2.26554688 1.47210938 2.40234375 2.23046875 C2.57894531 3.20628906 2.75554687 4.18210938 2.9375 5.1875 C3.11152344 6.15042969 3.28554687 7.11335937 3.46484375 8.10546875 C3.81430093 9.99559846 4.20591033 11.87855074 4.64453125 13.75 C5 16 5 16 3.75 17.8125 C2 19 2 19 -1 19 C-1 18.34 -1 17.68 -1 17 C-0.01 17 0.98 17 2 17 C1.855625 16.19175781 1.71125 15.38351563 1.5625 14.55078125 C1.376875 13.48214844 1.19125 12.41351563 1 11.3125 C0.814375 10.25675781 0.62875 9.20101562 0.4375 8.11328125 C0.04931926 5.35095938 -0.08259976 2.78257957 0 0 Z " fill="#2375F5" transform="translate(145,136)"/>
<path d="M0 0 C0.33 0 0.66 0 1 0 C1.33 4.62 1.66 9.24 2 14 C2.33 14 2.66 14 3 14 C3 15.65 3 17.3 3 19 C2.01 19 1.02 19 0 19 C0.33 19.99 0.66 20.98 1 22 C0.01 22.33 -0.98 22.66 -2 23 C-1.34 15.41 -0.68 7.82 0 0 Z " fill="#F5E7F7" transform="translate(196,109)"/>
<path d="M0 0 C0.33 0.99 0.66 1.98 1 3 C0.01 4.485 0.01 4.485 -1 6 C-0.01 6 0.98 6 2 6 C2 6.66 2 7.32 2 8 C0.68 8 -0.64 8 -2 8 C-2.33 9.32 -2.66 10.64 -3 12 C-3.66 11.01 -4.32 10.02 -5 9 C-6.98 9.99 -6.98 9.99 -9 11 C-8.60167969 10.54109375 -8.20335937 10.0821875 -7.79296875 9.609375 C-5.08857938 6.47728415 -2.42008229 3.36122541 0 0 Z " fill="#6464E6" transform="translate(169,152)"/>
<path d="M0 0 C1.98 0 3.96 0 6 0 C6 3.96 6 7.92 6 12 C0 4 0 4 0 0 Z " fill="#F1F9F6" transform="translate(49,134)"/>
<path d="M0 0 C0 0.99 0 1.98 0 3 C0.66 3.33 1.32 3.66 2 4 C-2.93270529 5.6442351 -5.54024193 4.18615592 -10 2 C-9.67 1.34 -9.34 0.68 -9 0 C-5.65506316 -0.99444068 -3.31044803 -1.10348268 0 0 Z " fill="#F9F5F7" transform="translate(152,33)"/>
<path d="M0 0 C-0.99 4.95 -1.98 9.9 -3 15 C-5.40450178 12.59549822 -5.29609139 11.91766058 -5.3125 8.625 C-5.24868341 5.57653082 -5.09095213 4.16950169 -3.625 1.4375 C-2 0 -2 0 0 0 Z " fill="#EDF7F9" transform="translate(78,130)"/>
<path d="M0 0 C0.33 0 0.66 0 1 0 C0.49228528 5.96564796 -1.38592128 10.63809899 -4 16 C-4.33 16 -4.66 16 -5 16 C-5.33 13.36 -5.66 10.72 -6 8 C-4.68 7.34 -3.36 6.68 -2 6 C-2 5.34 -2 4.68 -2 4 C-1.34 4 -0.68 4 0 4 C0 2.68 0 1.36 0 0 Z " fill="#3A70EE" transform="translate(54,73)"/>
<path d="M0 0 C1.65 0.33 3.3 0.66 5 1 C4.67 1.66 4.34 2.32 4 3 C4 3.99 4 4.98 4 6 C1.03 6 -1.94 6 -5 6 C-3.35 4.02 -1.7 2.04 0 0 Z " fill="#6066F3" transform="translate(59,50)"/>
<path d="M0 0 C0.33 0 0.66 0 1 0 C1.25454902 7.12737257 0.68931338 13.67546278 -3 20 C-3.66 20 -4.32 20 -5 20 C-4.80664062 19.39414063 -4.61328125 18.78828125 -4.4140625 18.1640625 C-2.54867496 12.16157783 -1.11840293 6.1841103 0 0 Z " fill="#8C5ED1" transform="translate(182,120)"/>
<path d="M0 0 C5.61 0.33 11.22 0.66 17 1 C17 1.66 17 2.32 17 3 C17.66 3 18.32 3 19 3 C19 3.66 19 4.32 19 5 C16.01885305 4.55238034 13.04053522 4.09249534 10.0625 3.625 C9.21236328 3.49867187 8.36222656 3.37234375 7.48632812 3.2421875 C6.67744141 3.11328125 5.86855469 2.984375 5.03515625 2.8515625 C4.2862915 2.73635254 3.53742676 2.62114258 2.76586914 2.50244141 C2.18313232 2.33663574 1.60039551 2.17083008 1 2 C0.67 1.34 0.34 0.68 0 0 Z " fill="#DAE9F3" transform="translate(111,107)"/>
<path d="M0 0 C1.65 0 3.3 0 5 0 C5 0.66 5 1.32 5 2 C3.21046815 2.83790789 1.41830305 3.67019396 -0.375 4.5 C-1.87160156 5.19609375 -1.87160156 5.19609375 -3.3984375 5.90625 C-6 7 -6 7 -8 7 C-8 6.34 -8 5.68 -8 5 C-2.25 2 -2.25 2 0 2 C0 1.34 0 0.68 0 0 Z " fill="#E6F2F5" transform="translate(144,169)"/>
<path d="M0 0 C-0.33 1.98 -0.66 3.96 -1 6 C-3.31 6.33 -5.62 6.66 -8 7 C-7.67 6.34 -7.34 5.68 -7 5 C-7.66 4.34 -8.32 3.68 -9 3 C-2.25 0 -2.25 0 0 0 Z " fill="#EDF5F6" transform="translate(151,185)"/>
<path d="M0 0 C-0.598125 0.28875 -1.19625 0.5775 -1.8125 0.875 C-4.19327792 2.04742026 -4.19327792 2.04742026 -7 4 C-10.1875 3.625 -10.1875 3.625 -13 3 C-13 2.34 -13 1.68 -13 1 C-11.58622218 0.63447197 -10.16879424 0.28304505 -8.75 -0.0625 C-7.96109375 -0.25972656 -7.1721875 -0.45695312 -6.359375 -0.66015625 C-3.89605178 -1.01497267 -2.34395868 -0.76877544 0 0 Z " fill="#F5EEFA" transform="translate(107,44)"/>
<path d="M0 0 C1.32 0 2.64 0 4 0 C3.375 1.9375 3.375 1.9375 2 4 C-1.63396678 5.02699061 -4.41871818 5.23967448 -8 4 C-6.865625 3.525625 -5.73125 3.05125 -4.5625 2.5625 C-1.24259834 1.36377917 -1.24259834 1.36377917 0 0 Z " fill="#E2EFF3" transform="translate(125,102)"/>
<path d="M0 0 C2.95929119 2.75520215 5.03681826 5.46627288 7 9 C6.34 9 5.68 9 5 9 C4.67 9.66 4.34 10.32 4 11 C3.54625 10.030625 3.0925 9.06125 2.625 8.0625 C1.34213779 4.92920418 1.34213779 4.92920418 -1 4 C-0.67 2.68 -0.34 1.36 0 0 Z " fill="#F2EBF2" transform="translate(165,66)"/>
<path d="M0 0 C0.33 0 0.66 0 1 0 C1.33 1.65 1.66 3.3 2 5 C2.33 5 2.66 5 3 5 C3 7.31 3 9.62 3 12 C2.34 10.68 1.68 9.36 1 8 C0.67 9.65 0.34 11.3 0 13 C-0.33 13 -0.66 13 -1 13 C-1.0272415 11.58344207 -1.04650467 10.16672955 -1.0625 8.75 C-1.07410156 7.96109375 -1.08570312 7.1721875 -1.09765625 6.359375 C-1.00385306 4.09308998 -0.63241063 2.1711105 0 0 Z " fill="#3B96ED" transform="translate(76,136)"/>
<path d="M0 0 C0.33 0 0.66 0 1 0 C1.05423638 1.91635217 1.09289963 3.83314925 1.125 5.75 C1.14820313 6.81734375 1.17140625 7.8846875 1.1953125 8.984375 C1.00487687 11.92470106 0.52670104 13.52361878 -1 16 C-1.66 16 -2.32 16 -3 16 C-2.01 10.72 -1.02 5.44 0 0 Z " fill="#8E49E0" transform="translate(183,120)"/>
<path d="M0 0 C1.75 0.125 1.75 0.125 4 1 C6.25 4.0625 6.25 4.0625 8 7 C6.68 7 5.36 7 4 7 C4 6.34 4 5.68 4 5 C3.01 5 2.02 5 1 5 C0.67 3.35 0.34 1.7 0 0 Z " fill="#ECF4F4" transform="translate(92,96)"/>
<path d="M0 0 C0.33 0.99 0.66 1.98 1 3 C1.66 3 2.32 3 3 3 C3.33 2.01 3.66 1.02 4 0 C4.33 0.99 4.66 1.98 5 3 C5.99 3.33 6.98 3.66 8 4 C8.33 4.99 8.66 5.98 9 7 C8.34 7 7.68 7 7 7 C7 6.34 7 5.68 7 5 C4.69 4.67 2.38 4.34 0 4 C0 2.68 0 1.36 0 0 Z " fill="#DBF1F9" transform="translate(48,165)"/>
<path d="M0 0 C0.66 0 1.32 0 2 0 C2.66 1.98 3.32 3.96 4 6 C2.35 7.32 0.7 8.64 -1 10 C-0.67 6.7 -0.34 3.4 0 0 Z " fill="#E9F5F7" transform="translate(36,142)"/>
<path d="M0 0 C0.66 0 1.32 0 2 0 C2.33 0.66 2.66 1.32 3 2 C3.99 2.66 4.98 3.32 6 4 C4.02 5.32 2.04 6.64 0 8 C-0.66 7.34 -1.32 6.68 -2 6 C-1.67 5.38125 -1.34 4.7625 -1 4.125 C0.14193235 2.08981656 0.14193235 2.08981656 0 0 Z " fill="#EFF8F6" transform="translate(84,112)"/>
<path d="M0 0 C1.65 0.33 3.3 0.66 5 1 C2.3144406 3.6855594 -0.37621328 4.06049974 -4 5 C-4 4.34 -4 3.68 -4 3 C-4.66 2.67 -5.32 2.34 -6 2 C-4.02 1.67 -2.04 1.34 0 1 C0 0.67 0 0.34 0 0 Z " fill="#3581F4" transform="translate(142,185)"/>
<path d="M0 0 C0 0.66 0 1.32 0 2 C-0.66 2 -1.32 2 -2 2 C-2.66 3.98 -3.32 5.96 -4 8 C-4.66 8 -5.32 8 -6 8 C-5.67 6.35 -5.34 4.7 -5 3 C-5.66 3 -6.32 3 -7 3 C-7 2.34 -7 1.68 -7 1 C-2.25 0 -2.25 0 0 0 Z " fill="#5C59E5" transform="translate(175,160)"/>
<path d="M0 0 C1.32 0.33 2.64 0.66 4 1 C2.75 2.5625 2.75 2.5625 1 4 C-1.1875 3.6875 -1.1875 3.6875 -3 3 C-3 3.66 -3 4.32 -3 5 C-2.34 5 -1.68 5 -1 5 C-1.33 5.99 -1.66 6.98 -2 8 C-2.66 7.34 -3.32 6.68 -4 6 C-4 4.68 -4 3.36 -4 2 C-2.68 2 -1.36 2 0 2 C0 1.34 0 0.68 0 0 Z " fill="#655AF8" transform="translate(171,158)"/>
<path d="M0 0 C0.99 0.33 1.98 0.66 3 1 C0.42215154 3.64752004 -1.91648098 5.94432065 -5 8 C-5 6.68 -5 5.36 -5 4 C-4.34 4 -3.68 4 -3 4 C-3 3.34 -3 2.68 -3 2 C-2.01 1.34 -1.02 0.68 0 0 Z " fill="#EDF2F4" transform="translate(58,48)"/>
<path d="M0 0 C1.32 0.33 2.64 0.66 4 1 C3.34 2.65 2.68 4.3 2 6 C0.68 5.67 -0.64 5.34 -2 5 C-2 4.34 -2 3.68 -2 3 C-1.34 3 -0.68 3 0 3 C0 2.01 0 1.02 0 0 Z " fill="#F1F5F9" transform="translate(93,72)"/>
<path d="M0 0 C1.62580966 0.11398665 3.25067157 0.24155659 4.875 0.375 C5.77992187 0.44460937 6.68484375 0.51421875 7.6171875 0.5859375 C10 1 10 1 12 3 C8.37 3 4.74 3 1 3 C0.67 2.01 0.34 1.02 0 0 Z " fill="#517FE8" transform="translate(110,66)"/>
<path d="M0 0 C1 3 1 3 1 5 C1.33 5.99 1.66 6.98 2 8 C0.68 7.67 -0.64 7.34 -2 7 C-2.33 5.35 -2.66 3.7 -3 2 C-2.01 1.34 -1.02 0.68 0 0 Z " fill="#F4F5F9" transform="translate(167,41)"/>
<path d="M0 0 C0.99 0 1.98 0 3 0 C3 0.66 3 1.32 3 2 C3.8971875 2.1546875 3.8971875 2.1546875 4.8125 2.3125 C7.28243264 3.08876455 8.32251235 4.07088921 10 6 C5.75354935 6 3.61475228 4.18249194 0 2 C0 1.34 0 0.68 0 0 Z " fill="#F0F7F3" transform="translate(52,170)"/>
<path d="M0 0 C2.125 0.9375 2.125 0.9375 4 2 C3.01 2.33 2.02 2.66 1 3 C1.33 4.65 1.66 6.3 2 8 C1.01 7.67 0.02 7.34 -1 7 C-1.33 5.02 -1.66 3.04 -2 1 C-1.34 0.67 -0.68 0.34 0 0 Z " fill="#3067EE" transform="translate(125,72)"/>
<path d="M0 0 C2.375 0.3125 2.375 0.3125 5 1 C5.66 1.99 6.32 2.98 7 4 C6.01 4 5.02 4 4 4 C3.67 4.66 3.34 5.32 3 6 C2.34 5.67 1.68 5.34 1 5 C0.375 2.4375 0.375 2.4375 0 0 Z " fill="#F6EDF5" transform="translate(154,58)"/>
<path d="M0 0 C0 3.57575896 -1.08840607 5.05295935 -3 8 C-3.99 7.67 -4.98 7.34 -6 7 C-4.19587357 3.73539027 -3.16605307 2.11070205 0 0 Z " fill="#F1EEF5" transform="translate(190,147)"/>
<path d="M0 0 C2.97 0.495 2.97 0.495 6 1 C6 1.99 6 2.98 6 4 C3.69 3.67 1.38 3.34 -1 3 C-0.67 2.01 -0.34 1.02 0 0 Z " fill="#EFF8F5" transform="translate(98,192)"/>
<path d="M0 0 C1.65 1.65 3.3 3.3 5 5 C3.125 5.625 3.125 5.625 1 6 C0.34 5.34 -0.32 4.68 -1 4 C-0.625 1.875 -0.625 1.875 0 0 Z " fill="#E4F4F5" transform="translate(41,152)"/>
<path d="M0 0 C1.5 1.25 1.5 1.25 3 3 C3 4.32 3 5.64 3 7 C1.68 7 0.36 7 -1 7 C-1.04254356 5.00045254 -1.04080783 2.99958364 -1 1 C-0.67 0.67 -0.34 0.34 0 0 Z " fill="#0687F9" transform="translate(77,143)"/>
<path d="M0 0 C1.98 0 3.96 0 6 0 C5.01 1.98 4.02 3.96 3 6 C0 2.25 0 2.25 0 0 Z " fill="#E5F1FA" transform="translate(49,134)"/>
<path d="M0 0 C0.66 0 1.32 0 2 0 C2 1.98 2 3.96 2 6 C0.35 5.67 -1.3 5.34 -3 5 C-3 4.34 -3 3.68 -3 3 C-2.34 3 -1.68 3 -1 3 C-0.67 2.01 -0.34 1.02 0 0 Z " fill="#3069F4" transform="translate(44,71)"/>
<path d="M0 0 C2.79872437 2.52788007 4.45773019 4.20411134 5 8 C2.00675737 6.9024777 1.15389099 6.32317108 -0.25 3.375 C-0.4975 2.59125 -0.745 1.8075 -1 1 C-0.67 0.67 -0.34 0.34 0 0 Z " fill="#4A67F6" transform="translate(164,160)"/>
<path d="M0 0 C3.3 0.33 6.6 0.66 10 1 C6.23312136 2.88343932 4.97041037 3.22057835 1 3 C0.67 2.01 0.34 1.02 0 0 Z " fill="#118CF2" transform="translate(78,152)"/>
<path d="M0 0 C3.3125 -0.25 3.3125 -0.25 7 0 C7.99 1.32 8.98 2.64 10 4 C6.7 3.01 3.4 2.02 0 1 C0 0.67 0 0.34 0 0 Z " fill="#DAF2FD" transform="translate(84,173)"/>
<path d="M0 0 C0.66666667 2.66666667 1.33333333 5.33333333 2 8 C-2.875 3.25 -2.875 3.25 -4 1 C-2.68 0.67 -1.36 0.34 0 0 Z " fill="#DEF0F4" transform="translate(63,152)"/>
<path d="M0 0 C1.485 0.99 1.485 0.99 3 2 C3.1875 4.625 3.1875 4.625 3 7 C2.01 7.33 1.02 7.66 0 8 C0 5.36 0 2.72 0 0 Z " fill="#0882F9" transform="translate(77,134)"/>
<path d="M0 0 C0.93065133 2.60582371 1.14917407 3.64198224 0.0625 6.25 C-0.4634375 7.11625 -0.4634375 7.11625 -1 8 C-1.99 7.67 -2.98 7.34 -4 7 C-2.68 4.69 -1.36 2.38 0 0 Z " fill="#2284EC" transform="translate(84,120)"/>
</svg>
